<svg version="1.2" xmlns="http://www.w3.org/2000/svg" viewBox="0 0 800 800" width="800" height="800"><style>.a{fill:#fafafa}</style><path class="a" d="m356.4 84.2c-210.5 0-356.4 168.4-356.4 252.6 0 84.3 42.1 147.4 126.3 147.4 84.2 0 126.3 21.1 126.3 84.2 0 84.2 63.2 147.4 147.4 147.4 273.7 0 400-147.4 400-294.7 0-252.7-191-336.9-443.6-336.9zm-56.2 84.2c14.1-0.2 27.8 5.2 37.8 15.1 10.1 9.9 15.8 23.4 15.8 37.6 0 14.1-5.7 27.6-15.8 37.5-10 9.9-23.7 15.3-37.8 15.1-13.8-0.3-26.9-5.9-36.6-15.7-9.7-9.9-15.1-23.1-15.1-36.9 0-13.8 5.4-27.1 15.1-36.9 9.7-9.9 22.8-15.5 36.6-15.8zm168.4 0c14.1-0.2 27.8 5.2 37.8 15.1 10.1 9.9 15.8 23.4 15.8 37.6 0 14.1-5.7 27.6-15.8 37.5-10 9.9-23.7 15.3-37.8 15.1-13.8-0.3-26.9-5.9-36.6-15.7-9.7-9.9-15.1-23.1-15.1-36.9 0-13.8 5.4-27.1 15.1-36.9 9.7-9.9 22.8-15.5 36.6-15.8zm152.5 84.2c13.9 0 27.3 5.6 37.2 15.4 9.8 9.9 15.4 23.3 15.4 37.3 0 13.9-5.6 27.3-15.4 37.2-9.9 9.9-23.3 15.4-37.2 15.4-14 0-27.4-5.5-37.3-15.4-9.8-9.9-15.4-23.3-15.4-37.2 0-14 5.6-27.4 15.4-37.3 9.9-9.8 23.3-15.4 37.3-15.4zm-468.3 10.1c14.2-0.2 27.8 5.2 37.9 15.1 10 9.9 15.7 23.4 15.7 37.6 0 14.1-5.7 27.6-15.7 37.5-10.1 9.9-23.7 15.3-37.9 15.1-13.8-0.2-26.9-5.9-36.6-15.7-9.7-9.9-15.1-23.1-15.1-36.9 0-13.8 5.4-27.1 15.1-36.9 9.7-9.9 22.8-15.5 36.6-15.8zm279.2 242.6c8.3 0 16.5 1.6 24.2 4.8 7.6 3.1 14.6 7.8 20.5 13.7 5.8 5.8 10.5 12.8 13.7 20.5 3.1 7.6 4.8 15.8 4.8 24.1 0 34.9-44.3 63.2-79.2 63.2-8.3 0-16.5-1.7-24.2-4.8-7.6-3.2-14.6-7.9-20.5-13.7-5.8-5.9-10.5-12.8-13.6-20.5-3.2-7.7-4.9-15.9-4.9-24.2 0-34.9 44.3-63.1 79.2-63.1z"/></svg>