<svg version="1.2" xmlns="http://www.w3.org/2000/svg" viewBox="0 0 800 800" width="800" height="800"><style>.a{fill:#0a0a0a}</style><path fill-rule="evenodd" class="a" d="m649.5 117.8c28.4 5.1 52.7 14.9 72.4 34.7 22.4 22.4 32.1 50.6 36.6 84.1 4.3 32.2 4.3 73.3 4.3 124.1v190.2c0 50.9 0 91.9-4.3 124.1-4.5 33.5-14.2 61.7-36.6 84.1-22.4 22.4-50.6 32.1-84.1 36.6-32.2 4.3-73.2 4.3-124.1 4.3h-115.7c-50.9 0-91.9 0-124.2-4.3-33.5-4.5-61.7-14.2-84.1-36.6-19.7-19.7-29.6-44-34.7-72.4-66.7-10.5-117.8-68.2-117.8-137.9v-225.3c0-68.4 0-122.6 5.7-165 5.9-43.6 18.2-78.9 46.1-106.7 27.8-27.9 63.1-40.2 106.8-46.1 42.3-5.7 96.5-5.7 164.9-5.7h150.9c69.7 0 127.4 51.1 137.9 117.8zm-58.6-5.4c-11.3-32.9-42.5-56.6-79.3-56.6h-148.8c-71 0-121.4 0.1-159.6 5.2-37.4 5-59 14.5-74.8 30.2-15.7 15.8-25.1 37.3-30.2 74.8-5.1 38.2-5.2 88.6-5.2 159.6v223.2c0 36.8 23.7 68 56.6 79.3-0.8-22.7-0.8-48.4-0.8-77.2v-190.2c0-50.8 0-91.9 4.4-124.1 4.5-33.5 14.1-61.7 36.5-84.1 22.4-22.4 50.6-32 84.1-36.5 32.3-4.4 73.3-4.4 124.2-4.4h115.7c28.8 0 54.5 0 77.2 0.8zm-382.4 131.6c-3.8 28.1-3.8 65.4-3.8 118.8v186c0 53.4 0 90.7 3.8 118.8 3.7 27.3 10.4 41.8 20.7 52.1 10.3 10.3 24.7 17 52 20.6 28.1 3.8 65.4 3.9 118.8 3.9h111.6c53.4 0 90.7-0.1 118.8-3.9 27.3-3.6 41.8-10.3 52.1-20.6 10.3-10.3 17-24.8 20.6-52.1 3.8-28.1 3.9-65.4 3.9-118.8v-186c0-53.4-0.1-90.7-3.9-118.8-3.6-27.3-10.3-41.7-20.6-52-10.3-10.3-24.8-17-52.1-20.7-28.1-3.8-65.4-3.9-118.8-3.9h-111.6c-53.4 0-90.7 0.1-118.8 3.9-27.3 3.7-41.7 10.4-52 20.7-10.3 10.3-17 24.7-20.7 52z"/></svg>