<svg version="1.2" xmlns="http://www.w3.org/2000/svg" viewBox="0 0 800 800" width="800" height="800"><style>.a{fill:#fafafa}</style><path class="a" d="m274.7 86.7v-57.8c0-15.8-13.1-28.9-28.9-28.9-15.8 0-28.9 13.1-28.9 28.9v60.2c9.6-1.2 18.5-2.4 28.9-2.4z"/><path class="a" d="m583.1 89.1v-60.2c0-15.8-13.1-28.9-28.9-28.9-15.8 0-28.9 13.1-28.9 28.9v57.8h28.9c10.4 0 19.3 1.2 28.9 2.4z"/><path class="a" d="m583.1 89.1v55.5c0 15.8-13.1 28.9-28.9 28.9-15.8 0-28.9-13.1-28.9-28.9v-57.9h-250.6v57.9c0 15.8-13.1 28.9-28.9 28.9-15.8 0-28.9-13.1-28.9-28.9v-55.5c-113.8 10.4-163.9 83.6-163.9 190.4v327.7c0 115.7 57.8 192.8 192.8 192.8h308.4c135 0 192.8-77.1 192.8-192.8v-327.7c0-106.8-50.1-180-163.9-190.4zm-183.1 508.5h-154.2c-15.8 0-28.9-13.1-28.9-28.9 0-15.8 13.1-28.9 28.9-28.9h154.2c15.8 0 28.9 13.1 28.9 28.9 0 15.8-13.1 28.9-28.9 28.9zm154.2-192.8h-308.4c-15.8 0-28.9-13.1-28.9-28.9 0-15.8 13.1-28.9 28.9-28.9h308.4c15.8 0 28.9 13.1 28.9 28.9 0 15.8-13.1 28.9-28.9 28.9z"/></svg>