<svg version="1.2" xmlns="http://www.w3.org/2000/svg" viewBox="0 0 800 800" width="800" height="800"><style>.a{fill:#fafafa}</style><path class="a" d="m634.8 361.6h-469.6c-10.3 0.1-20.5 2.1-30 6.1-9.4 3.9-18.1 9.7-25.3 16.9-7.3 7.3-13.1 15.9-17 25.4-3.9 9.5-6 19.6-6 29.9v281.8c0 10.3 2.1 20.5 6 29.9 3.9 9.5 9.7 18.1 17 25.4 7.2 7.3 15.9 13 25.3 17 9.5 3.9 19.7 6 30 6h469.6c10.3 0 20.5-2.1 30-6 9.4-4 18.1-9.7 25.3-17 7.3-7.3 13.1-15.9 17-25.4 3.9-9.4 6-19.6 6-29.9v-281.8c0-10.3-2.1-20.4-6-29.9-3.9-9.5-9.7-18.1-17-25.4-7.2-7.2-15.9-13-25.3-16.9-9.5-4-19.7-6-30-6.1zm-359.8 235.6c3.9 2.3 6.8 6.1 8 10.5 1.2 4.4 0.6 9.1-1.7 13.1-2.3 3.9-6.1 6.8-10.5 8-4.4 1.2-9.1 0.5-13-1.8l-28.5-16.4v32.8c0 4.6-1.8 9-5 12.2-3.2 3.2-7.6 5.1-12.2 5.1-4.5 0-8.9-1.9-12.1-5.1-3.3-3.2-5.1-7.6-5.1-12.2v-32.8l-28.4 16.4c-3.9 2.3-8.6 2.9-13 1.7-4.4-1.1-8.2-4-10.5-8-2.3-3.9-2.9-8.6-1.7-13 1.2-4.4 4.1-8.2 8-10.5l28.4-16.4-28.4-16.4c-3.9-2.3-6.8-6-8-10.4-1.2-4.4-0.6-9.1 1.7-13.1 2.3-3.9 6.1-6.8 10.5-8 4.4-1.2 9.1-0.6 13 1.7l28.4 16.4v-32.8c0-4.6 1.8-8.9 5.1-12.2 3.2-3.2 7.6-5 12.1-5 4.6 0 9 1.8 12.2 5 3.2 3.3 5 7.6 5 12.2v32.8l28.5-16.4c3.9-2.3 8.6-2.9 13-1.7 4.4 1.2 8.2 4.1 10.4 8 2.3 4 2.9 8.7 1.8 13.1-1.2 4.4-4.1 8.1-8 10.4l-28.4 16.4zm187.8 0c4 2.3 6.9 6.1 8.1 10.5 1.2 4.4 0.5 9.1-1.7 13.1-2.3 3.9-6.1 6.8-10.5 8-4.4 1.2-9.1 0.5-13.1-1.8l-28.4-16.4v32.8c0 4.6-1.8 9-5 12.2-3.3 3.2-7.6 5.1-12.2 5.1-4.6 0-9-1.9-12.2-5.1-3.2-3.2-5-7.6-5-12.2v-32.8l-28.4 16.4c-4 2.3-8.7 2.9-13.1 1.7-4.4-1.2-8.1-4-10.4-8-2.3-3.9-2.9-8.6-1.7-13 1.1-4.4 4-8.2 7.9-10.5l28.5-16.4-28.5-16.4c-3.9-2.3-6.8-6-7.9-10.4-1.2-4.4-0.6-9.1 1.7-13.1 2.3-3.9 6-6.8 10.4-8 4.4-1.2 9.1-0.6 13.1 1.7l28.4 16.4v-32.8c0-4.6 1.8-9 5-12.2 3.2-3.2 7.6-5 12.2-5 4.6 0 8.9 1.8 12.2 5 3.2 3.2 5 7.6 5 12.2v32.8l28.4-16.4c4-2.3 8.7-2.9 13.1-1.7 4.4 1.2 8.1 4.1 10.4 8 2.3 4 2.9 8.7 1.7 13.1-1.2 4.4-4 8.1-8 10.4l-28.4 16.4zm187.9 0c3.9 2.3 6.8 6.1 8 10.5 1.2 4.4 0.6 9.1-1.7 13.1-2.3 3.9-6 6.8-10.5 8-4.4 1.2-9.1 0.5-13-1.8l-28.4-16.4v32.8c0 4.6-1.9 9-5.1 12.2-3.2 3.2-7.6 5-12.2 5-4.5 0-8.9-1.8-12.1-5-3.3-3.2-5.1-7.6-5.1-12.2v-32.8l-28.4 16.4c-3.9 2.3-8.6 2.9-13 1.7-4.4-1.2-8.2-4-10.5-8-2.2-3.9-2.9-8.6-1.7-13 1.2-4.4 4.1-8.2 8-10.5l28.4-16.4-28.4-16.4c-3.9-2.3-6.8-6-8-10.4-1.2-4.4-0.5-9.1 1.7-13.1 2.3-3.9 6.1-6.8 10.5-8 4.4-1.2 9.1-0.6 13 1.7l28.4 16.4v-32.8c0-4.6 1.8-9 5.1-12.2 3.2-3.2 7.6-5 12.1-5 4.6 0 9 1.8 12.2 5 3.2 3.2 5.1 7.6 5.1 12.2v32.8l28.4-16.4c3.9-2.3 8.6-2.9 13-1.7 4.4 1.2 8.2 4.1 10.4 8 2.3 4 2.9 8.7 1.8 13.1-1.2 4.4-4.1 8.1-8 10.4l-28.4 16.4z"/><path class="a" d="m229.3 205.1c0-45.3 18-88.7 50-120.7 32-32 75.4-50 120.7-50 45.3 0 88.7 18 120.7 50 32 32 50 75.4 50 120.7v122.1h34.4v-122.1c0-54.4-21.6-106.6-60.1-145-38.4-38.5-90.6-60.1-145-60.1-54.4 0-106.6 21.6-145 60.1-38.5 38.4-60.1 90.6-60.1 145v122.1h34.4z"/></svg>