<svg version="1.2" xmlns="http://www.w3.org/2000/svg" viewBox="0 0 588 111" width="588" height="111" fill="#fafafa"><path d="M.3 18.9h33.4V109h22.8V18.9h33.4v-19H.3zM129 110.6c24.8 0 40.3-17 40.3-42.2 0-25.4-15.5-42.3-40.3-42.3S88.8 43 88.8 68.4c0 25.2 15.4 42.2 40.2 42.2m.1-17.6c-11.4 0-17.3-10.5-17.3-24.8 0-14.2 5.9-24.8 17.3-24.8 11.3 0 17.1 10.6 17.1 24.8 0 14.3-5.8 24.8-17.1 24.8m91.9 17.6c24.8 0 40.3-17 40.3-42.2 0-25.4-15.5-42.3-40.3-42.3S180.8 43 180.8 68.4c0 25.2 15.4 42.2 40.2 42.2m.1-17.6c-11.4 0-17.3-10.5-17.3-24.8 0-14.2 5.9-24.8 17.3-24.8 11.3 0 17.1 10.6 17.1 24.8 0 14.3-5.8 24.8-17.1 24.8M298.7-.1h-22.6V109h22.6zM317.5 109h22.4V95.9h1c3.1 6.8 10 14.4 23.2 14.4 18.6 0 33.2-14.7 33.2-42.1 0-28.2-15.2-42.1-33.2-42.1-13.6 0-20.2 8.1-23.2 14.8h-.7v-41h-22.7zm22.2-40.9c0-14.6 6.2-23.9 17.2-23.9 11.2 0 17.2 9.7 17.2 23.9 0 14.3-6.1 24.2-17.2 24.2-10.9 0-17.2-9.6-17.2-24.2M449 110.6c24.8 0 40.3-17 40.3-42.2 0-25.4-15.5-42.3-40.3-42.3S408.8 43 408.8 68.4c0 25.2 15.4 42.2 40.2 42.2m.1-17.6c-11.4 0-17.3-10.5-17.3-24.8 0-14.2 5.9-24.8 17.3-24.8 11.3 0 17.1 10.6 17.1 24.8 0 14.3-5.8 24.8-17.1 24.8M588 105.7l-5.3 5.3-16.3-11.6q-.5-.4-.9-.9-.4-.4-.7-1t-.4-1.2q-.2-.6-.2-1.2v-.4q0-.5-.1-1t-.3-1-.4-.9q-.3-.5-.7-.8l-30.1-30.2-4.9 1.6q-.7.3-1.4.3t-1.4-.1q-.8-.2-1.4-.5-.6-.4-1.2-.9l-17.7-17.8q-.7-.7-1.1-1.7-.4-.9-.4-2 0-1 .4-2t1.1-1.7l8.4-8.4q.7-.7 1.7-1.1t2-.4q1.1 0 2 .4 1 .4 1.7 1.1l17.8 17.7q.5.6.9 1.2.3.6.5 1.4.1.7.1 1.4t-.3 1.4l-1.6 4.9L568 85.7q.3.4.8.7.4.2.9.4t1 .3 1 .1h.4q.6 0 1.2.2.6.1 1.2.4t1 .7q.5.4.9.9zm-60-50.9c.5.5 1.2.8 1.9.8s1.4-.3 1.9-.8.7-1.1.7-1.9c0-.7-.2-1.3-.7-1.8l-15.9-15.9c-.5-.4-1.1-.7-1.8-.7s-1.4.3-1.9.7c-.5.5-.8 1.2-.8 1.9s.3 1.4.8 1.9z"/><path d="M579 59.6c7-6.3 8.2-13.6 6.6-19.7-.1-.5-.2-.9-.6-1.2l-1.4-1.1c-.3-.3-.6-.4-.9-.4-.3.1-.7.2-.8.5l-8.2 10.6c-.2.3-.6.5-1 .5l-2.9.2q-.4 0-.7-.3l-5.7-4.8c-.2-.2-.4-.5-.4-.8l-.4-2.6q0-.5.2-.9l7.6-10.3c.4-.5.3-1.1-.1-1.5l-1.9-1.5c-.3-.3-.7-.3-1.3-.2-5.2 1.1-14.2 6.2-16.5 13.2-2 6.2-1.3 10.6-1.3 10.6 0 3.4-1.1 6.8-2.5 8.2l-39.7 38.1-.2.2c-3.3 3.3-3.3 8.6-.1 11.7 3.1 3.2 8.5 3.3 11.8 0q.2-.2.4-.5l38.3-41.3c4.7-4.2 14 .3 21.7-6.7"/></svg>