<svg version="1.2" xmlns="http://www.w3.org/2000/svg" viewBox="0 0 256 256" width="256" height="256" fill="#fafafa"><path d="m255.8 239.9-15.9 15.9-49-35q-1.6-1.1-2.8-2.5c-.8-1-1.6-2.1-2.1-3.2q-.9-1.7-1.3-3.5c-.3-1.2-.5-2.5-.5-3.8v-1.1q0-1.6-.3-3.1t-.9-3q-.6-1.4-1.4-2.7-.9-1.3-2.1-2.4l-90.7-90.8-14.5 4.9c-1.4.4-2.9.7-4.3.8-1.5 0-3-.1-4.4-.4q-2.1-.6-4.1-1.6-1.9-1.1-3.5-2.7L4.6 52.3c-1.4-1.4-2.6-3.2-3.4-5.1S0 43.2 0 41.1.4 37 1.2 35c.8-1.9 2-3.6 3.4-5.1L29.9 4.6C31.4 3.2 33.1 2 35 1.2 37 .4 39 0 41.1 0s4.2.4 6.1 1.2 3.7 2 5.1 3.4L105.7 58q1.6 1.6 2.7 3.5 1 2 1.6 4.1c.3 1.4.4 2.9.4 4.4-.1 1.4-.4 2.9-.8 4.3l-4.9 14.5 90.8 90.7q1.1 1.2 2.4 2.1 1.3.8 2.7 1.4 1.5.6 3 .9t3.1.3h1.1c1.3 0 2.6.2 3.8.5q1.8.4 3.5 1.3c1.1.5 2.2 1.3 3.2 2.1q1.4 1.2 2.5 2.8zM75.2 86.5c1.6 1.5 3.6 2.3 5.7 2.3s4.1-.8 5.6-2.3 2.3-3.5 2.3-5.6-.8-4.1-2.3-5.6L38.8 27.5c-1.5-1.4-3.5-2.3-5.6-2.3s-4.1.9-5.6 2.4-2.4 3.5-2.4 5.6.9 4.1 2.4 5.6z"/><path d="M228.6 101.1c21.1-19.2 24.6-41 19.9-59.4-.1-1.4-.5-2.7-1.8-3.6l-4.2-3.5c-.7-.7-1.8-1-2.8-.9-.9.1-1.9.6-2.4 1.4l-24.5 31.8c-.7 1-1.8 1.5-3 1.5l-8.8.6c-.8 0-1.5-.3-2.1-.8l-17.2-14.5c-.7-.6-1.2-1.4-1.3-2.3l-1-8c-.2-.9.1-1.8.6-2.5l22.9-31.2c1-1.4.9-3.4-.5-4.6L196.9.8c-1.1-1-2.3-.9-4-.6-15.8 3.2-42.9 18.5-49.7 39.7-6 18.6-3.9 31.7-3.9 31.7 0 10.5-3.5 20.7-7.7 24.9L12.2 211.1c-.2.3-.5.5-.7.7-9.9 9.9-9.8 25.9-.3 35.4s25.8 9.8 35.6-.1q.7-.7 1.3-1.4l115.1-124.5c14.2-12.6 42.2.9 65.4-20.1"/></svg>